<svg width="24" height="24" viewBox="0 0 24 24" fill="none" xmlns="http://www.w3.org/2000/svg">
<path d="M21.2815 4.4197L21.2494 4.39964L17.1904 2.3999L12.8093 8.24132L14.8249 10.929C14.7646 11.9426 14.3348 12.8989 13.6168 13.6169C12.8988 14.3348 11.9425 14.7647 10.9289 14.825L8.24128 12.8093L2.3999 17.1903L4.383 21.2154L4.39968 21.2494L4.41979 21.2815C4.52562 21.452 4.67333 21.5926 4.84886 21.6899C5.02439 21.7872 5.2219 21.8379 5.42259 21.8373H6.46996C8.48803 21.8373 10.4863 21.4398 12.3508 20.6675C14.2152 19.8952 15.9093 18.7633 17.3363 17.3363C18.7633 15.9093 19.8952 14.2152 20.6675 12.3507C21.4398 10.4863 21.8373 8.48799 21.8373 6.46992V5.4225C21.8379 5.22181 21.7872 5.0243 21.6899 4.84877C21.5926 4.67324 21.452 4.52553 21.2815 4.4197ZM20.3373 6.46992C20.3373 14.1164 14.1164 20.3373 6.46996 20.3373H5.62246L4.29562 17.6437L8.24156 14.6842L10.4384 16.3319H10.6884C12.1847 16.3302 13.6193 15.735 14.6773 14.677C15.7354 13.6189 16.3305 12.1844 16.3322 10.6881V10.4381L14.6846 8.24128L17.6437 4.29557L20.3373 5.62265V6.46992Z" fill="black"/>
</svg>
