<svg width="60" height="41" viewBox="0 0 60 41" fill="none" xmlns="http://www.w3.org/2000/svg">
<path fill-rule="evenodd" clip-rule="evenodd" d="M45.2969 13.3249C44.9212 13.3254 44.6172 13.6294 44.6172 14.0051V20.6262C44.6172 21.0014 44.9212 21.3059 45.2969 21.3059H54.6474C54.9021 21.3059 55.135 21.1641 55.2517 20.9379C55.3684 20.7116 55.3489 20.4393 55.2019 20.2321L50.4923 13.6109C50.3647 13.4316 50.1584 13.3249 49.9383 13.3249L45.2969 13.3249ZM45.9771 14.6848H49.5872L53.3291 19.9455H45.9765V14.6848H45.9771Z" fill="#80233A"/>
<path fill-rule="evenodd" clip-rule="evenodd" d="M4.60819 0.56781C2.60705 0.56781 0.96582 2.20904 0.96582 4.21018V27.8135C0.96582 29.8146 2.60705 31.4558 4.60819 31.4558H9.36625C9.82113 33.9755 12.031 35.8994 14.682 35.8994C17.3316 35.8994 19.5439 33.9765 19.9993 31.4558H44.8557C45.311 33.976 47.5252 35.8994 50.1729 35.8994C52.8207 35.8994 55.0348 33.976 55.4902 31.4558H56.575C58.1545 31.4558 59.4456 30.1572 59.4456 28.5847V19.8831H59.4461C59.4589 19.7859 59.4499 19.6867 59.4205 19.5933C59.4167 19.579 59.4124 19.5653 59.4072 19.5515H59.4058C59.4058 19.5515 59.4058 19.5511 59.4053 19.5511C59.375 19.4647 59.3271 19.386 59.2649 19.3186L51.9531 9.17315V9.17268C51.8255 8.99576 51.6206 8.89046 51.4019 8.89046L41.9191 8.88429V4.21257C41.9191 2.21143 40.2779 0.570197 38.2767 0.570197H4.60822L4.60819 0.56781ZM4.60819 1.92769H38.2767C39.538 1.92769 40.5592 2.94844 40.5592 4.21018V30.0963H20.0705C19.8647 27.301 17.5233 25.0864 14.6821 25.0864C11.8413 25.0864 9.49958 27.301 9.29376 30.0963H4.60831C3.34703 30.0963 2.32582 29.0756 2.32582 27.8138V4.21055C2.32582 2.94878 3.34657 1.92805 4.60831 1.92805L4.60819 1.92769ZM41.9195 10.2418L51.0538 10.2479L58.0867 20.0058V28.5845C58.0867 29.4151 57.4126 30.0957 56.576 30.0957H55.5623C55.3565 27.3004 53.0148 25.0858 50.1739 25.0858C47.3331 25.0858 44.9914 27.3004 44.7855 30.0957H41.9196L41.9195 10.2418ZM14.6831 26.4464C16.9224 26.4464 18.7263 28.2494 18.7263 30.4967V30.5726C18.6855 32.7759 16.8997 34.5399 14.6831 34.5399C12.4434 34.5399 10.6471 32.7431 10.6399 30.5099V30.4985C10.6399 28.2511 12.4437 26.4483 14.6831 26.4483V26.4464ZM50.1743 26.4464C52.4135 26.4464 54.2175 28.2494 54.2175 30.4967C54.2175 32.7364 52.4136 34.5399 50.1743 34.5399C47.935 34.5399 46.1311 32.7361 46.1311 30.4967C46.1311 28.2493 47.9349 26.4464 50.1743 26.4464Z" fill="#80233A"/>
<path fill-rule="evenodd" clip-rule="evenodd" d="M22.6858 10.7785C22.5036 10.7757 22.3281 10.8464 22.1986 10.974C22.0691 11.102 21.9961 11.2761 21.9961 11.4582C21.9961 11.6404 22.0691 11.8149 22.1986 11.9425C22.3281 12.0706 22.5036 12.1408 22.6858 12.1384H36.0223C36.2044 12.1408 36.3799 12.0706 36.5094 11.9425C36.6394 11.8149 36.7119 11.6404 36.7119 11.4582C36.7119 11.2761 36.6394 11.102 36.5094 10.974C36.3799 10.8464 36.2044 10.7757 36.0223 10.7785H22.6858Z" fill="#80233A"/>
<path fill-rule="evenodd" clip-rule="evenodd" d="M16.5842 16.8803C16.4021 16.8775 16.2266 16.9481 16.0971 17.0762C15.9676 17.2038 15.8945 17.3784 15.8945 17.56C15.8945 17.7422 15.9676 17.9167 16.0971 18.0443C16.2266 18.1724 16.4021 18.2426 16.5842 18.2402H36.0225C36.2046 18.2426 36.3801 18.1724 36.5096 18.0443C36.6396 17.9167 36.7122 17.7422 36.7122 17.56C36.7122 17.3784 36.6396 17.2038 36.5096 17.0762C36.3801 16.9481 36.2046 16.8775 36.0225 16.8803H16.5842Z" fill="#80233A"/>
<path fill-rule="evenodd" clip-rule="evenodd" d="M3.95628 39.154C3.77414 39.1511 3.59864 39.2218 3.46914 39.3494C3.33965 39.4774 3.2666 39.6515 3.2666 39.8337C3.2666 40.0158 3.33965 40.1904 3.46914 40.318C3.59864 40.446 3.77414 40.5162 3.95628 40.5139H55.6156C55.7978 40.5162 55.9733 40.446 56.1028 40.318C56.2327 40.1904 56.3053 40.0158 56.3053 39.8337C56.3053 39.6515 56.2327 39.4774 56.1028 39.3494C55.9733 39.2218 55.7978 39.1511 55.6156 39.154H3.95628Z" fill="#80233A"/>
</svg>
