<svg width="28" height="28" viewBox="0 0 28 28" fill="none" xmlns="http://www.w3.org/2000/svg">
<path d="M19.5248 23.8422L10.9988 15.0957L19.5248 6.34915C19.6774 6.19288 19.7629 5.9831 19.7629 5.76465C19.7629 5.54621 19.6774 5.33642 19.5248 5.18015C19.4507 5.10449 19.3622 5.04437 19.2645 5.00334C19.1669 4.9623 19.062 4.94116 18.9561 4.94116C18.8501 4.94116 18.7453 4.9623 18.6476 5.00334C18.5499 5.04437 18.4614 5.10449 18.3873 5.18015L9.31531 14.4849C9.15603 14.6483 9.06689 14.8675 9.06689 15.0957C9.06689 15.3238 9.15603 15.543 9.31531 15.7064L18.3856 25.0112C18.4597 25.0874 18.5485 25.1479 18.6464 25.1893C18.7444 25.2306 18.8497 25.2519 18.9561 25.2519C19.0624 25.2519 19.1677 25.2306 19.2657 25.1893C19.3637 25.1479 19.4524 25.0874 19.5266 25.0112C19.6792 24.8549 19.7646 24.6451 19.7646 24.4267C19.7646 24.2082 19.6792 23.9984 19.5266 23.8422L19.5248 23.8422Z" fill="#80233A"/>
</svg>
