<svg width="17" height="17" viewBox="0 0 17 17" fill="none" xmlns="http://www.w3.org/2000/svg">
<path d="M14.4756 5.14562L9.16523 10.3221L3.85485 5.14562C3.75997 5.05295 3.63261 5.00106 3.49998 5.00106C3.36735 5.00106 3.23998 5.05295 3.1451 5.14562C3.09916 5.19063 3.06266 5.24436 3.03775 5.30365C3.01283 5.36294 3 5.42661 3 5.49093C3 5.55525 3.01283 5.61892 3.03775 5.67821C3.06266 5.73751 3.09916 5.79123 3.1451 5.83624L8.79441 11.3442C8.89362 11.4409 9.02669 11.4951 9.16523 11.4951C9.30377 11.4951 9.43683 11.4409 9.53604 11.3442L15.1854 5.83731C15.2316 5.79226 15.2684 5.7384 15.2935 5.67891C15.3186 5.61942 15.3315 5.5555 15.3315 5.49093C15.3315 5.42636 15.3186 5.36244 15.2935 5.30295C15.2684 5.24346 15.2316 5.1896 15.1854 5.14456C15.0905 5.05188 14.9631 5 14.8305 5C14.6978 5 14.5705 5.05188 14.4756 5.14456V5.14562Z" fill="black"/>
</svg>
