<svg width="15" height="7" viewBox="0 0 15 7" fill="none" xmlns="http://www.w3.org/2000/svg">
<path d="M13.5591 0.091474C13.6295 0.0329301 13.7253 -5.57182e-08 13.8253 -5.13482e-08C13.9253 -4.69782e-08 14.0211 0.0329301 14.0915 0.091474L14.8864 0.747073C14.9589 0.80319 15 0.881541 15 0.963544C15 1.04555 14.9589 1.1239 14.8864 1.18002L7.99492 6.86393C7.88955 6.95095 7.7466 6.99989 7.59748 7L7.40251 7C7.2534 6.99989 7.11045 6.95095 7.00507 6.86393L0.113621 1.18001C0.0411238 1.1239 -4.57023e-08 1.04555 -4.21179e-08 0.963543C-3.85334e-08 0.88154 0.0411238 0.80319 0.113621 0.747072L0.908501 0.0914734C0.978902 0.0329295 1.07474 -6.08693e-07 1.17471 -6.04323e-07C1.27468 -5.99953e-07 1.37052 0.0329295 1.44092 0.0914735L7.5 5.08887L13.5591 0.091474Z" fill="black"/>
</svg>
