<svg width="10" height="7" viewBox="0 0 10 7" fill="none" xmlns="http://www.w3.org/2000/svg">
<path d="M9.08208 0.709324C9.12693 0.664106 9.18798 0.638672 9.25167 0.638672C9.31535 0.638672 9.3764 0.664106 9.42125 0.709324L9.92762 1.21569C9.9738 1.25904 10 1.31955 10 1.38289C10 1.44623 9.9738 1.50674 9.92762 1.55009L5.53751 5.9402C5.47038 6.00741 5.37931 6.04521 5.28432 6.04529L5.16012 6.04529C5.06513 6.04521 4.97406 6.00741 4.90694 5.9402L0.516826 1.55008C0.470642 1.50674 0.444445 1.44622 0.444445 1.38289C0.444445 1.31955 0.470642 1.25904 0.516826 1.21569L1.02319 0.709324C1.06804 0.664106 1.12909 0.638671 1.19278 0.638671C1.25647 0.638671 1.31752 0.664106 1.36236 0.709324L5.22222 4.56918L9.08208 0.709324Z" fill="black"/>
</svg>
