<svg width="6" height="10" viewBox="0 0 6 10" fill="none" xmlns="http://www.w3.org/2000/svg">
<path d="M0.0706522 0.91792C0.0254344 0.873071 0 0.812021 0 0.748334C0 0.684647 0.0254344 0.623597 0.0706522 0.578749L0.57702 0.0723813C0.620364 0.026198 0.68088 0 0.744217 0C0.807554 0 0.86807 0.026198 0.911413 0.0723813L5.30152 4.46249C5.36873 4.52962 5.40654 4.62069 5.40662 4.71568V4.83988C5.40654 4.93487 5.36873 5.02594 5.30152 5.09306L0.911413 9.48317C0.86807 9.52936 0.807554 9.55556 0.744217 9.55556C0.68088 9.55556 0.620364 9.52936 0.57702 9.48317L0.0706522 8.97681C0.0254344 8.93196 0 8.87091 0 8.80722C0 8.74353 0.0254344 8.68248 0.0706522 8.63764L3.93051 4.77778L0.0706522 0.91792Z" fill="#80233A"/>
</svg>
