<svg width="27" height="27" viewBox="0 0 27 27" fill="none" xmlns="http://www.w3.org/2000/svg">
<path d="M13.4989 8.29932C12.1192 8.29932 10.7961 8.84738 9.82051 9.82295C8.84494 10.7985 8.29688 12.1217 8.29688 13.5013C8.29688 14.881 8.84494 16.2041 9.82051 17.1797C10.7961 18.1552 12.1192 18.7033 13.4989 18.7033C14.8785 18.7033 16.2017 18.1552 17.1772 17.1797C18.1528 16.2041 18.7009 14.881 18.7009 13.5013C18.7009 12.1217 18.1528 10.7985 17.1772 9.82295C16.2017 8.84738 14.8785 8.29932 13.4989 8.29932ZM13.4989 16.8797C12.6026 16.8797 11.743 16.5236 11.1092 15.8899C10.4754 15.2561 10.1194 14.3965 10.1194 13.5002C10.1194 12.6039 10.4754 11.7443 11.1092 11.1105C11.743 10.4767 12.6026 10.1207 13.4989 10.1207C14.3952 10.1207 15.2548 10.4767 15.8885 11.1105C16.5223 11.7443 16.8784 12.6039 16.8784 13.5002C16.8784 14.3965 16.5223 15.2561 15.8885 15.8899C15.2548 16.5236 14.3952 16.8797 13.4989 16.8797Z" fill="black"/>
<path d="M18.9066 9.32052C19.5764 9.32052 20.1193 8.77755 20.1193 8.10777C20.1193 7.43799 19.5764 6.89502 18.9066 6.89502C18.2368 6.89502 17.6938 7.43799 17.6938 8.10777C17.6938 8.77755 18.2368 9.32052 18.9066 9.32052Z" fill="black"/>
<path d="M23.0998 6.87511C22.8394 6.20256 22.4414 5.5918 21.9313 5.08193C21.4212 4.57205 20.8103 4.17429 20.1377 3.91411C19.3506 3.61864 18.519 3.45887 17.6784 3.44161C16.5951 3.39436 16.2519 3.38086 13.5047 3.38086C10.7574 3.38086 10.4053 3.38086 9.33094 3.44161C8.491 3.45799 7.66004 3.61779 6.87394 3.91411C6.20112 4.17399 5.59005 4.57164 5.07994 5.08155C4.56983 5.59147 4.17195 6.20239 3.91182 6.87511C3.61628 7.66217 3.45688 8.4938 3.44044 9.33436C3.39207 10.4166 3.37744 10.7597 3.37744 13.5081C3.37744 16.2554 3.37744 16.6052 3.44044 17.6819C3.45732 18.5234 3.61594 19.3536 3.91182 20.1422C4.17268 20.8147 4.57095 21.4254 5.08118 21.9352C5.59141 22.4451 6.20239 22.8429 6.87507 23.1032C7.65968 23.4106 8.49098 23.5818 9.33319 23.6095C10.4166 23.6567 10.7597 23.6714 13.5069 23.6714C16.2542 23.6714 16.6063 23.6714 17.6807 23.6095C18.5212 23.5924 19.3527 23.433 20.1399 23.1381C20.8124 22.8773 21.4231 22.4792 21.9332 21.9692C22.4432 21.4592 22.8413 20.8485 23.1021 20.176C23.3979 19.3885 23.5566 18.5582 23.5734 17.7167C23.6218 16.6345 23.6364 16.2914 23.6364 13.543C23.6364 10.7946 23.6364 10.4459 23.5734 9.36923C23.5603 8.51679 23.4001 7.67301 23.0998 6.87511ZM21.7296 17.5986C21.7223 18.247 21.604 18.8893 21.3797 19.4976C21.2107 19.9351 20.9521 20.3324 20.6204 20.6639C20.2887 20.9954 19.8913 21.2538 19.4537 21.4225C18.8521 21.6457 18.2166 21.7641 17.5749 21.7724C16.5062 21.8219 16.2047 21.8342 13.4642 21.8342C10.7214 21.8342 10.4413 21.8342 9.35232 21.7724C8.71098 21.7645 8.07581 21.6462 7.47469 21.4225C7.03559 21.2548 6.63657 20.9969 6.30344 20.6653C5.97032 20.3337 5.71051 19.9359 5.54082 19.4976C5.31969 18.8958 5.20142 18.2611 5.19094 17.62C5.14257 16.5512 5.13132 16.2497 5.13132 13.5092C5.13132 10.7676 5.13132 10.4875 5.19094 9.39736C5.19821 8.74938 5.31655 8.10746 5.54082 7.49948C5.88394 6.61186 6.58707 5.91323 7.47469 5.57348C8.0761 5.35089 8.71109 5.23257 9.35232 5.22361C10.4222 5.17523 10.7226 5.16173 13.4642 5.16173C16.2058 5.16173 16.4871 5.16173 17.5749 5.22361C18.2167 5.23133 18.8522 5.34969 19.4537 5.57348C19.8912 5.74254 20.2886 6.00121 20.6203 6.33289C20.952 6.66457 21.2106 7.06194 21.3797 7.49948C21.6008 8.1013 21.7191 8.73604 21.7296 9.37711C21.7779 10.447 21.7903 10.7474 21.7903 13.489C21.7903 16.2295 21.7903 16.5242 21.7419 17.5997H21.7296V17.5986Z" fill="black"/>
</svg>
