<svg width="22" height="17" viewBox="0 0 22 17" fill="none" xmlns="http://www.w3.org/2000/svg">
<path d="M1.62793 2.87494L20.3711 2.87494C20.716 2.87494 20.9957 2.45491 20.9955 1.93747C20.9953 1.41995 20.7152 1 20.3703 1L1.6272 1C1.28231 1 1.0026 1.42003 1.00281 1.93747C1.00301 2.45491 1.28309 2.87494 1.62793 2.87494Z" fill="#80233A" stroke="white" stroke-width="0.2"/>
<path d="M20.3703 7.5625L1.6272 7.5625C1.28231 7.5625 1.0026 7.98253 1.00281 8.49997C1.00301 9.0174 1.28309 9.43743 1.62793 9.43743L20.3711 9.43743C20.716 9.43743 20.9957 9.01741 20.9955 8.49997C20.9953 7.98253 20.7152 7.5625 20.3703 7.5625Z" fill="#80233A" stroke="white" stroke-width="0.2"/>
<path d="M20.3705 14.125L7.87523 14.125C7.53035 14.125 7.25064 14.545 7.25083 15.0625C7.25102 15.58 7.53109 15.9999 7.87592 15.9999L20.3712 15.9999C20.716 15.9999 20.9958 15.5799 20.9956 15.0625C20.9954 14.545 20.7154 14.125 20.3705 14.125Z" fill="#80233A" stroke="white" stroke-width="0.2"/>
</svg>
