<svg width="20" height="23" viewBox="0 0 20 23" fill="none" xmlns="http://www.w3.org/2000/svg">
<path d="M12.967 12.5675C15.0458 11.4588 16.4704 9.22777 16.4704 6.65781C16.4704 2.98761 13.5681 0 9.9998 0C6.43153 0 3.52921 2.98761 3.52921 6.65781C3.52921 9.2277 4.95382 11.4588 7.03261 12.5675C2.96329 13.8712 0 17.7837 0 22.3947V23H20V22.3947C20 17.784 17.0365 13.8714 12.9674 12.5675H12.967ZM4.70548 6.65781C4.70548 3.6545 7.08074 1.21051 9.9996 1.21051C12.9185 1.21051 15.2937 3.6545 15.2937 6.65781C15.2937 9.66113 12.9185 12.1051 9.9996 12.1051C7.08074 12.1051 4.70548 9.66113 4.70548 6.65781ZM1.19603 21.7892C1.4996 17.0647 5.33257 13.3156 9.9994 13.3156C14.6662 13.3156 18.4996 17.0647 18.8028 21.7892H1.19603Z" fill="black"/>
</svg>
