<svg width="24" height="24" viewBox="0 0 24 24" fill="none" xmlns="http://www.w3.org/2000/svg">
<path fill-rule="evenodd" clip-rule="evenodd" d="M3.39583 20.2399H9.98438C10.3152 20.2399 10.5833 20.5081 10.5833 20.8389V22.0368C10.5833 22.3676 10.3152 22.6357 9.98438 22.6357H3.39583C2.07265 22.6357 1 21.5631 1 20.2399V3.46908C1 2.14589 2.07265 1.07324 3.39583 1.07324H9.98438C10.3152 1.07324 10.5833 1.3414 10.5833 1.6722V2.87012C10.5833 3.20091 10.3152 3.46908 9.98438 3.46908H3.39583V20.2399ZM16.1416 4.84633L22.2989 10.9916C22.4653 11.1614 22.5597 11.3889 22.5624 11.6265V12.0817C22.5622 12.3199 22.4674 12.5483 22.2989 12.7166L16.1416 18.8619C16.0291 18.9753 15.8761 19.0391 15.7164 19.0391C15.5566 19.0391 15.4036 18.9753 15.2911 18.8619L14.4406 18.0234C14.3272 17.9109 14.2634 17.7579 14.2634 17.5981C14.2634 17.4384 14.3272 17.2854 14.4406 17.1729L18.5734 13.0521H6.39057C6.05977 13.0521 5.79161 12.7839 5.79161 12.4531V11.2552C5.79161 10.9244 6.05977 10.6562 6.39057 10.6562H18.5734L14.4406 6.53539C14.3279 6.42498 14.2644 6.27387 14.2644 6.11612C14.2644 5.95836 14.3279 5.80725 14.4406 5.69685L15.2911 4.84633C15.4036 4.73294 15.5566 4.66915 15.7164 4.66915C15.8761 4.66915 16.0291 4.73294 16.1416 4.84633Z" fill="black"/>
<path d="M3.39583 20.2399H2.89583V20.7399H3.39583V20.2399ZM3.39583 3.46908V2.96908H2.89583V3.46908H3.39583ZM22.2989 10.9916L22.656 10.6417L22.6521 10.6377L22.2989 10.9916ZM16.1416 4.84633L15.7866 5.19843L15.7884 5.20022L16.1416 4.84633ZM22.5624 11.6265H23.0625L23.0624 11.6207L22.5624 11.6265ZM22.5624 12.0817L23.0624 12.0822V12.0817H22.5624ZM22.2989 12.7166L22.6521 13.0705L22.6522 13.0704L22.2989 12.7166ZM16.1416 18.8619L15.7884 18.508L15.7866 18.5099L16.1416 18.8619ZM15.2911 18.8619L15.6461 18.5098L15.6421 18.5059L15.2911 18.8619ZM14.4406 18.0234L14.0885 18.3784L14.0895 18.3795L14.4406 18.0234ZM14.4406 17.1729L14.7927 17.5279L14.7936 17.527L14.4406 17.1729ZM18.5734 13.0521L18.9264 13.4061L19.783 12.5521H18.5734V13.0521ZM18.5734 10.6562V11.1562H19.783L18.9264 10.3022L18.5734 10.6562ZM14.4406 6.53539L14.7936 6.18131L14.7905 6.17824L14.4406 6.53539ZM14.4406 5.69685L14.7905 6.05401L14.7941 6.0504L14.4406 5.69685ZM15.2911 4.84633L15.6446 5.19988L15.6461 5.19843L15.2911 4.84633ZM9.98438 19.7399H3.39583V20.7399H9.98438V19.7399ZM11.0833 20.8389C11.0833 20.2319 10.5913 19.7399 9.98438 19.7399V20.7399C10.039 20.7399 10.0833 20.7842 10.0833 20.8389H11.0833ZM11.0833 22.0368V20.8389H10.0833V22.0368H11.0833ZM9.98438 23.1357C10.5913 23.1357 11.0833 22.6437 11.0833 22.0368H10.0833C10.0833 22.0914 10.039 22.1357 9.98438 22.1357V23.1357ZM3.39583 23.1357H9.98438V22.1357H3.39583V23.1357ZM0.5 20.2399C0.5 21.8392 1.79651 23.1357 3.39583 23.1357V22.1357C2.34879 22.1357 1.5 21.2869 1.5 20.2399H0.5ZM0.5 3.46908V20.2399H1.5V3.46908H0.5ZM3.39583 0.573242C1.79651 0.573242 0.5 1.86975 0.5 3.46908H1.5C1.5 2.42204 2.34879 1.57324 3.39583 1.57324V0.573242ZM9.98438 0.573242H3.39583V1.57324H9.98438V0.573242ZM11.0833 1.6722C11.0833 1.06526 10.5913 0.573242 9.98438 0.573242V1.57324C10.039 1.57324 10.0833 1.61755 10.0833 1.6722H11.0833ZM11.0833 2.87012V1.6722H10.0833V2.87012H11.0833ZM9.98438 3.96908C10.5913 3.96908 11.0833 3.47706 11.0833 2.87012H10.0833C10.0833 2.92477 10.039 2.96908 9.98438 2.96908V3.96908ZM3.39583 3.96908H9.98438V2.96908H3.39583V3.96908ZM3.89583 20.2399V3.46908H2.89583V20.2399H3.89583ZM22.6521 10.6377L16.4948 4.49243L15.7884 5.20022L21.9457 11.3455L22.6521 10.6377ZM23.0624 11.6207C23.0582 11.2542 22.9126 10.9035 22.656 10.6417L21.9418 11.3416C22.018 11.4193 22.0612 11.5235 22.0625 11.6323L23.0624 11.6207ZM23.0624 12.0817V11.6265H22.0624V12.0817H23.0624ZM22.6522 13.0704C22.9146 12.8084 23.0621 12.4529 23.0624 12.0822L22.0624 12.0813C22.0624 12.1869 22.0203 12.2882 21.9456 12.3629L22.6522 13.0704ZM16.4948 19.2158L22.6521 13.0705L21.9457 12.3627L15.7884 18.5081L16.4948 19.2158ZM15.7164 19.5391C16.0094 19.5391 16.2903 19.4221 16.4966 19.214L15.7866 18.5099C15.768 18.5286 15.7427 18.5391 15.7164 18.5391V19.5391ZM14.9361 19.214C15.1424 19.4221 15.4233 19.5391 15.7164 19.5391V18.5391C15.69 18.5391 15.6647 18.5286 15.6461 18.5099L14.9361 19.214ZM14.0895 18.3795L14.9401 19.218L15.6421 18.5059L14.7916 17.6674L14.0895 18.3795ZM13.7634 17.5981C13.7634 17.8912 13.8804 18.1721 14.0885 18.3784L14.7927 17.6684C14.7739 17.6498 14.7634 17.6245 14.7634 17.5981H13.7634ZM14.0885 16.8179C13.8804 17.0242 13.7634 17.3051 13.7634 17.5981H14.7634C14.7634 17.5718 14.7739 17.5465 14.7927 17.5279L14.0885 16.8179ZM18.2203 12.698L14.0875 16.8188L14.7936 17.527L18.9264 13.4061L18.2203 12.698ZM6.39057 13.5521H18.5734V12.5521H6.39057V13.5521ZM5.29161 12.4531C5.29161 13.06 5.78363 13.5521 6.39057 13.5521V12.5521C6.33592 12.5521 6.29161 12.5077 6.29161 12.4531H5.29161ZM5.29161 11.2552V12.4531H6.29161V11.2552H5.29161ZM6.39057 10.1562C5.78363 10.1562 5.29161 10.6482 5.29161 11.2552H6.29161C6.29161 11.2005 6.33592 11.1562 6.39057 11.1562V10.1562ZM18.5734 10.1562H6.39057V11.1562H18.5734V10.1562ZM14.0875 6.88945L18.2203 11.0103L18.9264 10.3022L14.7936 6.18132L14.0875 6.88945ZM13.7644 6.11612C13.7644 6.40825 13.882 6.68808 14.0906 6.89253L14.7905 6.17824C14.7738 6.16189 14.7644 6.1395 14.7644 6.11612H13.7644ZM14.0906 5.3397C13.882 5.54415 13.7644 5.82399 13.7644 6.11612H14.7644C14.7644 6.09274 14.7738 6.07035 14.7905 6.05399L14.0906 5.3397ZM14.9375 4.49277L14.087 5.34329L14.7941 6.0504L15.6446 5.19988L14.9375 4.49277ZM15.7164 4.16915C15.4233 4.16915 15.1424 4.28618 14.9361 4.49423L15.6461 5.19843C15.6647 5.17969 15.69 5.16916 15.7164 5.16916V4.16915ZM16.4966 4.49423C16.2903 4.28618 16.0094 4.16915 15.7164 4.16915V5.16916C15.7427 5.16916 15.768 5.17969 15.7866 5.19843L16.4966 4.49423Z" fill="white"/>
</svg>
