<svg width="58" height="51" viewBox="0 0 58 51" fill="none" xmlns="http://www.w3.org/2000/svg">
<path d="M7.67987 43V33.4119C7.67987 30.5 8.19478 27.4105 9.22461 24.1435C10.29 20.8409 11.8169 17.6626 13.8056 14.6087C15.8297 11.5192 18.2623 8.83806 21.1032 6.56534L27.9213 12.1051C25.6841 15.3011 23.731 18.6392 22.062 22.1193C20.4284 25.5639 19.6117 29.2571 19.6117 33.1989V43H7.67987ZM34.9526 43V33.4119C34.9526 30.5 35.4675 27.4105 36.4973 24.1435C37.5627 20.8409 39.0897 17.6626 41.0783 14.6087C43.1025 11.5192 45.535 8.83806 48.3759 6.56534L55.1941 12.1051C52.9569 15.3011 51.0037 18.6392 49.3347 22.1193C47.7012 25.5639 46.8844 29.2571 46.8844 33.1989V43H34.9526Z" fill="#F4F2F2"/>
</svg>
