<svg width="15" height="16" viewBox="0 0 15 16" fill="none" xmlns="http://www.w3.org/2000/svg">
<path d="M14.8515 15.0927L10.7638 10.8063C12.9097 8.44497 13.029 4.73483 10.9357 2.22925C9.7529 0.812635 8.03405 0 6.21988 0C4.73042 9.76539e-05 3.2883 0.552998 2.15915 1.55688C-0.440906 3.86773 -0.734304 7.92869 1.50532 10.6094C2.68926 12.0265 4.40887 12.8392 6.22329 12.8392C7.58853 12.8392 8.91147 12.3696 9.9934 11.5185C9.99429 11.5195 9.99454 11.5208 9.99555 11.5218L14.1142 15.8406C14.2152 15.9469 14.3491 16 14.4829 16C14.6137 16 14.745 15.949 14.8455 15.8469C15.049 15.6401 15.052 15.3026 14.8515 15.0927ZM6.22329 11.7725C4.76489 11.7725 3.31557 11.1421 2.28881 9.91308C0.418078 7.67391 0.661987 4.29557 2.83432 2.36483C3.81437 1.4936 5.02003 1.06677 6.21963 1.06667C7.6774 1.06661 9.12634 1.69679 10.1522 2.92554C12.0236 5.16533 11.7802 8.54429 9.60923 10.4744C8.62855 11.3457 7.42289 11.7725 6.22329 11.7725Z" fill="#8E8E8E"/>
</svg>
