<svg width="33" height="33" viewBox="0 0 33 33" fill="none" xmlns="http://www.w3.org/2000/svg">
<path d="M31.4694 3.36633L31.4159 3.33289L24.6508 0L17.349 9.7357L20.7084 14.2152C20.6078 15.9045 19.8914 17.4983 18.6948 18.6949C17.4982 19.8916 15.9043 20.6079 14.215 20.7084L9.73562 17.3491L0 24.6507L3.30516 31.3592L3.33297 31.4159L3.36648 31.4693C3.54286 31.7535 3.78905 31.9878 4.0816 32.15C4.37415 32.3121 4.70333 32.3967 5.03781 32.3956H6.78344C10.1469 32.3956 13.4774 31.7331 16.5848 30.446C19.6922 29.1589 22.5157 27.2723 24.894 24.894C27.2723 22.5156 29.1589 19.6922 30.446 16.5847C31.7332 13.4773 32.3956 10.1468 32.3956 6.78336V5.03766C32.3967 4.70318 32.3121 4.374 32.15 4.08145C31.9879 3.7889 31.7536 3.54271 31.4694 3.36633V3.36633ZM29.8956 6.78336C29.8956 19.5275 19.5275 29.8956 6.78344 29.8956H5.37094L3.15953 25.4063L9.73609 20.4739L13.3976 23.2199H13.8142C16.3081 23.2171 18.699 22.2252 20.4624 20.4618C22.2258 18.6984 23.2177 16.3075 23.2205 13.8137V13.397L20.4745 9.73563L25.4063 3.15945L29.8956 5.37125V6.78336Z" fill="#80233A"/>
</svg>
