<svg width="92" height="63" viewBox="0 0 92 63" fill="none" xmlns="http://www.w3.org/2000/svg">
<path d="M54.6302 45.4963H38.3018V16.5054H54.6302V45.4963Z" fill="#FF5F00"/>
<path d="M39.3478 30.9985C39.3478 25.1175 42.1349 19.8789 46.4752 16.503C43.3013 14.0343 39.2956 12.5609 34.9422 12.5609C24.6361 12.5609 16.2817 20.8155 16.2817 30.9985C16.2817 41.1814 24.6361 49.436 34.9422 49.436C39.2956 49.436 43.3013 47.9626 46.4752 45.4939C42.1349 42.118 39.3478 36.8794 39.3478 30.9985Z" fill="#EB001B"/>
<path d="M76.6522 30.9985C76.6522 41.1814 68.2979 49.436 57.9917 49.436C53.6384 49.436 49.6327 47.9626 46.4575 45.4939C50.799 42.118 53.5862 36.8794 53.5862 30.9985C53.5862 25.1175 50.799 19.8789 46.4575 16.503C49.6327 14.0343 53.6384 12.5609 57.9917 12.5609C68.2979 12.5609 76.6522 20.8155 76.6522 30.9985Z" fill="#F79E1B"/>
</svg>
