<svg width="92" height="65" viewBox="0 0 92 65" fill="none" xmlns="http://www.w3.org/2000/svg">
<path fill-rule="evenodd" clip-rule="evenodd" d="M42.2133 32.6323L42.6116 30.0757L41.7243 30.0548H37.4873L40.4319 11.1882C40.441 11.1311 40.4707 11.0781 40.514 11.0404C40.5575 11.0026 40.613 10.9819 40.671 10.9819H47.8153C50.1872 10.9819 51.824 11.4806 52.6784 12.4649C53.0791 12.9267 53.3343 13.4094 53.4578 13.9404C53.5873 14.4977 53.5894 15.1634 53.4631 15.9755L53.454 16.0346V16.555L53.8546 16.7844C54.1919 16.9653 54.4601 17.1722 54.6657 17.4092C55.0084 17.8041 55.23 18.306 55.3237 18.9008C55.4206 19.5126 55.3886 20.2409 55.23 21.0653C55.0472 22.0134 54.7517 22.8393 54.3526 23.515C53.9856 24.1376 53.518 24.6541 52.9626 25.0543C52.4325 25.4346 51.8027 25.7232 51.0905 25.908C50.4004 26.0895 49.6136 26.1811 48.7506 26.1811H48.1946C47.7971 26.1811 47.411 26.3258 47.1078 26.5851C46.8038 26.8499 46.6028 27.2116 46.5412 27.6072L46.4992 27.8375L45.7953 32.3439L45.7635 32.5092C45.755 32.5616 45.7405 32.5877 45.7192 32.6054C45.7002 32.6215 45.6729 32.6323 45.6462 32.6323H42.2133Z" fill="#28356A"/>
<path fill-rule="evenodd" clip-rule="evenodd" d="M54.2342 16.0947C54.2131 16.2325 54.1886 16.3733 54.1612 16.5179C53.2191 21.4061 49.9957 23.0948 45.879 23.0948H43.7829C43.2794 23.0948 42.8551 23.4641 42.7768 23.966L41.3997 32.7931C41.3487 33.1227 41.6 33.4196 41.929 33.4196H45.6467C46.0868 33.4196 46.4608 33.0964 46.5302 32.6577L46.5666 32.4669L47.2666 27.9782L47.3116 27.732C47.3801 27.2918 47.755 26.9684 48.1951 26.9684H48.7511C52.3529 26.9684 55.1727 25.4908 55.9969 21.2144C56.341 19.4281 56.1628 17.9365 55.2519 16.8874C54.9762 16.5712 54.6342 16.3086 54.2342 16.0947Z" fill="#298FC2"/>
<path fill-rule="evenodd" clip-rule="evenodd" d="M53.2488 15.6972C53.1048 15.6547 52.9563 15.6163 52.804 15.5816C52.6508 15.5478 52.494 15.5178 52.3325 15.4915C51.7674 15.3992 51.148 15.3555 50.4848 15.3555H44.8851C44.7471 15.3555 44.6161 15.3869 44.499 15.4439C44.2406 15.5693 44.0488 15.8164 44.0023 16.1189L42.811 23.7432L42.7769 23.9655C42.8552 23.4636 43.2795 23.0943 43.783 23.0943H45.8791C49.9958 23.0943 53.2192 21.4048 54.1613 16.5175C54.1895 16.3728 54.2131 16.232 54.2343 16.0943C53.996 15.9664 53.7378 15.8571 53.4598 15.764C53.3911 15.7409 53.3203 15.7187 53.2488 15.6972Z" fill="#22284F"/>
<path fill-rule="evenodd" clip-rule="evenodd" d="M44.0022 16.1189C44.0487 15.8165 44.2405 15.5694 44.4989 15.4448C44.6169 15.3877 44.747 15.3562 44.885 15.3562H50.4847C51.148 15.3562 51.7673 15.4002 52.3324 15.4924C52.4939 15.5185 52.6508 15.5487 52.8039 15.5826C52.9563 15.6171 53.1047 15.6556 53.2488 15.6979C53.3202 15.7195 53.3911 15.7419 53.4604 15.7641C53.7384 15.8572 53.9967 15.9674 54.235 16.0944C54.5154 14.288 54.2327 13.0581 53.2663 11.9443C52.2006 10.7181 50.2775 10.1934 47.8166 10.1934H40.6721C40.1695 10.1934 39.7407 10.5627 39.663 11.0654L36.6873 30.1259C36.6286 30.503 36.9164 30.8432 37.2928 30.8432H41.7034L44.0022 16.1189Z" fill="#28356A"/>
<path fill-rule="evenodd" clip-rule="evenodd" d="M21.1635 37.8213H15.9545C15.598 37.8213 15.2949 38.083 15.2392 38.4387L13.1324 51.9361C13.0906 52.2025 13.2948 52.4425 13.5621 52.4425H16.0488C16.4053 52.4425 16.7085 52.181 16.7642 51.8246L17.3323 48.184C17.3871 47.8277 17.6909 47.566 18.0468 47.566H19.6957C23.1269 47.566 25.1072 45.8881 25.6245 42.5633C25.8575 41.1085 25.6344 39.9657 24.9602 39.1652C24.2199 38.2863 22.9067 37.8213 21.1635 37.8213ZM21.7642 42.7511C21.4793 44.6398 20.0512 44.6398 18.6705 44.6398H17.8843L18.4358 41.1124C18.4686 40.8992 18.6513 40.7423 18.8646 40.7423H19.2249C20.1656 40.7423 21.0529 40.7423 21.5113 41.284C21.7849 41.6072 21.8685 42.0875 21.7642 42.7511Z" fill="#28356A"/>
<path fill-rule="evenodd" clip-rule="evenodd" d="M36.8669 42.5882H34.3725C34.16 42.5882 33.9763 42.7452 33.9437 42.9584L33.8331 43.6633L33.6588 43.4079C33.1189 42.6158 31.9145 42.3511 30.7128 42.3511C27.9562 42.3511 25.6019 44.4608 25.1434 47.4201C24.9051 48.8962 25.2439 50.3079 26.0728 51.2923C26.8329 52.1973 27.9205 52.5746 29.2145 52.5746C31.4356 52.5746 32.667 51.1314 32.667 51.1314L32.5559 51.8319C32.514 52.0996 32.7182 52.3398 32.984 52.3398H35.2308C35.5881 52.3398 35.8898 52.0781 35.9461 51.7217L37.2942 43.0946C37.3369 42.829 37.1334 42.5882 36.8669 42.5882ZM33.3898 47.4941C33.1491 48.934 32.0182 49.9007 30.5756 49.9007C29.8513 49.9007 29.2725 49.6659 28.9006 49.2211C28.532 48.7794 28.392 48.1505 28.5091 47.4501C28.734 46.0225 29.8839 45.0241 31.3046 45.0241C32.0129 45.0241 32.5887 45.2621 32.968 45.7105C33.348 46.1639 33.4988 46.7967 33.3898 47.4941Z" fill="#28356A"/>
<path fill-rule="evenodd" clip-rule="evenodd" d="M49.9603 42.8042H47.4535C47.2144 42.8042 46.9897 42.9243 46.8543 43.1252L43.397 48.271L41.9316 43.3259C41.8394 43.0166 41.5569 42.8042 41.2369 42.8042H38.7739C38.4743 42.8042 38.2665 43.0998 38.3617 43.3846L41.1228 51.5721L38.527 55.2749C38.3229 55.5666 38.5285 55.9676 38.8812 55.9676H41.3848C41.6224 55.9676 41.8447 55.8506 41.9796 55.6537L50.3166 43.493C50.5163 43.2022 50.3113 42.8042 49.9603 42.8042Z" fill="#28356A"/>
<path fill-rule="evenodd" clip-rule="evenodd" d="M58.3166 37.8213H53.107C52.7513 37.8213 52.4482 38.083 52.3925 38.4387L50.2857 51.9361C50.2439 52.2025 50.4481 52.4425 50.7139 52.4425H53.3873C53.6354 52.4425 53.8479 52.2595 53.8868 52.01L54.4848 48.184C54.5396 47.8277 54.8436 47.566 55.1992 47.566H56.8475C60.2794 47.566 62.259 45.8881 62.777 42.5633C63.0108 41.1085 62.7862 39.9657 62.112 39.1652C61.3723 38.2863 60.0601 37.8213 58.3166 37.8213ZM58.9177 42.7511C58.6335 44.6398 57.2054 44.6398 55.8238 44.6398H55.0387L55.5908 41.1124C55.6234 40.8992 55.8048 40.7423 56.0188 40.7423H56.3791C57.3189 40.7423 58.207 40.7423 58.6655 41.284C58.939 41.6072 59.022 42.0875 58.9177 42.7511Z" fill="#298FC2"/>
<path fill-rule="evenodd" clip-rule="evenodd" d="M74.0169 42.5882H71.5239C71.31 42.5882 71.128 42.7452 71.096 42.9584L70.9855 43.6633L70.8103 43.4079C70.2703 42.6158 69.0669 42.3511 67.8649 42.3511C65.1085 42.3511 62.7551 44.4608 62.2966 47.4201C62.0589 48.8962 62.3962 50.3079 63.2249 51.2923C63.9867 52.1973 65.0726 52.5746 66.3668 52.5746C68.5877 52.5746 69.8193 51.1314 69.8193 51.1314L69.7082 51.8319C69.6664 52.0996 69.8703 52.3398 70.1378 52.3398H72.3839C72.7396 52.3398 73.0427 52.0781 73.0984 51.7217L74.4472 43.0946C74.4883 42.829 74.2842 42.5882 74.0169 42.5882ZM70.5399 47.4941C70.3007 48.934 69.1681 49.9007 67.7254 49.9007C67.0026 49.9007 66.4223 49.6659 66.0505 49.2211C65.682 48.7794 65.5433 48.1505 65.659 47.4501C65.8853 46.0225 67.0338 45.0241 68.4544 45.0241C69.1627 45.0241 69.7385 45.2621 70.1179 45.7105C70.4993 46.1639 70.6501 46.7967 70.5399 47.4941Z" fill="#298FC2"/>
<path fill-rule="evenodd" clip-rule="evenodd" d="M76.7498 38.1923L74.6119 51.9367C74.5701 52.2032 74.774 52.4431 75.0399 52.4431H77.1893C77.5467 52.4431 77.8496 52.1816 77.9044 51.8253L80.0127 38.3286C80.0547 38.0621 79.8506 37.8213 79.5847 37.8213H77.178C76.9655 37.8219 76.7827 37.9791 76.7498 38.1923Z" fill="#298FC2"/>
</svg>
